<svg width="845" height="361" viewBox="0 0 845 361" fill="none" xmlns="http://www.w3.org/2000/svg">
<path d="M535 192V153L605.5 252L677 153V192L605.5 291.5L535 192Z" fill="white" stroke="white"/>
<path d="M535 85V46L605.5 145L677 46V85L605.5 184.5L535 85Z" fill="white" stroke="white"/>
<path d="M139.371 53.1413V167.947C139.371 191.175 133.605 208.304 122.075 219.333C110.544 230.53 93.3316 236.128 70.4373 236.128C57.904 236.128 45.9556 234.373 34.592 230.864C23.2284 227.522 14.0373 222.676 7.01867 216.325L18.5493 197.776C24.7324 203.124 32.336 207.301 41.36 210.309C50.5511 213.484 59.9929 215.072 69.6853 215.072C85.2267 215.072 96.6738 211.396 104.027 204.043C111.547 196.69 115.307 185.493 115.307 170.453V159.925C109.625 166.777 102.606 171.957 94.2507 175.467C86.0622 178.809 77.1218 180.48 67.4293 180.48C54.7289 180.48 43.1982 177.806 32.8373 172.459C22.6436 166.944 14.6222 159.34 8.77333 149.648C2.92444 139.788 0 128.592 0 116.059C0 103.525 2.92444 92.4125 8.77333 82.72C14.6222 72.8604 22.6436 65.2569 32.8373 59.9093C43.1982 54.5618 54.7289 51.888 67.4293 51.888C77.456 51.888 86.7307 53.7262 95.2533 57.4027C103.943 61.0791 111.045 66.5102 116.56 73.696V53.1413H139.371ZM70.1867 159.424C78.8765 159.424 86.6471 157.586 93.4987 153.909C100.517 150.233 105.948 145.136 109.792 138.619C113.803 131.934 115.808 124.414 115.808 116.059C115.808 103.191 111.547 92.8302 103.024 84.976C94.5013 76.9547 83.5556 72.944 70.1867 72.944C56.6507 72.944 45.6213 76.9547 37.0987 84.976C28.576 92.8302 24.3147 103.191 24.3147 116.059C24.3147 124.414 26.2364 131.934 30.08 138.619C34.0907 145.136 39.5218 150.233 46.3733 153.909C53.392 157.586 61.3298 159.424 70.1867 159.424Z" fill="white"/>
<path d="M310.684 53.1413V185.995H287.622V164.939C282.275 172.292 275.507 177.89 267.318 181.733C259.13 185.577 250.106 187.499 240.246 187.499C227.379 187.499 215.848 184.658 205.654 178.976C195.461 173.294 187.439 165.356 181.59 155.163C175.909 144.802 173.068 132.937 173.068 119.568C173.068 106.199 175.909 94.4178 181.59 84.224C187.439 74.0302 195.461 66.0925 205.654 60.4107C215.848 54.7289 227.379 51.888 240.246 51.888C249.772 51.888 258.545 53.7262 266.566 57.4027C274.588 60.912 281.272 66.176 286.62 73.1947V53.1413H310.684ZM242.252 166.443C250.607 166.443 258.211 164.521 265.062 160.677C271.914 156.667 277.262 151.152 281.105 144.133C284.949 136.948 286.87 128.759 286.87 119.568C286.87 110.377 284.949 102.272 281.105 95.2533C277.262 88.0676 271.914 82.5529 265.062 78.7093C258.211 74.8658 250.607 72.944 242.252 72.944C233.729 72.944 226.042 74.8658 219.19 78.7093C212.506 82.5529 207.158 88.0676 203.148 95.2533C199.304 102.272 197.382 110.377 197.382 119.568C197.382 128.759 199.304 136.948 203.148 144.133C207.158 151.152 212.506 156.667 219.19 160.677C226.042 164.521 233.729 166.443 242.252 166.443Z" fill="white"/>
<path d="M426.652 51.888C439.52 51.888 451.051 54.7289 461.244 60.4107C471.438 66.0925 479.376 74.0302 485.058 84.224C490.907 94.4178 493.831 106.199 493.831 119.568C493.831 132.937 490.907 144.802 485.058 155.163C479.376 165.356 471.438 173.294 461.244 178.976C451.051 184.658 439.52 187.499 426.652 187.499C416.793 187.499 407.769 185.577 399.58 181.733C391.392 177.89 384.624 172.292 379.276 164.939V185.995H356.215V0H380.279V73.1947C385.627 66.176 392.311 60.912 400.332 57.4027C408.354 53.7262 417.127 51.888 426.652 51.888ZM424.647 166.443C433.17 166.443 440.773 164.521 447.458 160.677C454.309 156.667 459.657 151.152 463.5 144.133C467.511 136.948 469.516 128.759 469.516 119.568C469.516 110.377 467.511 102.272 463.5 95.2533C459.657 88.0676 454.309 82.5529 447.458 78.7093C440.773 74.8658 433.17 72.944 424.647 72.944C416.291 72.944 408.688 74.8658 401.836 78.7093C394.985 82.5529 389.637 88.0676 385.794 95.2533C381.95 102.272 380.028 110.377 380.028 119.568C380.028 128.759 381.95 136.948 385.794 144.133C389.637 151.152 394.985 156.667 401.836 160.677C408.688 164.521 416.291 166.443 424.647 166.443Z" fill="white"/>
<path d="M445.124 361C442.911 361 440.794 360.676 438.774 360.028C436.753 359.353 435.162 358.489 434 357.436L435.536 354.277C436.643 355.222 438.054 356.005 439.77 356.626C441.485 357.247 443.27 357.557 445.124 357.557C446.812 357.557 448.182 357.368 449.234 356.99C450.285 356.612 451.06 356.099 451.558 355.451C452.056 354.776 452.305 354.02 452.305 353.183C452.305 352.211 451.973 351.428 451.309 350.834C450.673 350.24 449.829 349.767 448.777 349.416C447.753 349.038 446.619 348.714 445.373 348.444C444.128 348.174 442.869 347.864 441.596 347.513C440.351 347.135 439.202 346.662 438.151 346.095C437.127 345.528 436.297 344.772 435.66 343.827C435.024 342.855 434.706 341.613 434.706 340.101C434.706 338.642 435.093 337.306 435.868 336.091C436.67 334.849 437.888 333.863 439.521 333.134C441.181 332.378 443.284 332 445.83 332C447.518 332 449.192 332.216 450.853 332.648C452.513 333.08 453.952 333.701 455.169 334.511L453.8 337.751C452.554 336.941 451.24 336.361 449.856 336.01C448.473 335.632 447.131 335.443 445.83 335.443C444.197 335.443 442.855 335.645 441.804 336.05C440.752 336.455 439.977 336.995 439.479 337.67C439.009 338.345 438.774 339.101 438.774 339.939C438.774 340.938 439.092 341.734 439.728 342.328C440.392 342.922 441.236 343.395 442.26 343.746C443.312 344.097 444.46 344.421 445.705 344.718C446.951 344.988 448.196 345.298 449.441 345.649C450.714 346 451.863 346.459 452.887 347.027C453.938 347.594 454.782 348.35 455.419 349.295C456.055 350.24 456.373 351.455 456.373 352.94C456.373 354.371 455.972 355.708 455.169 356.95C454.367 358.165 453.122 359.15 451.434 359.906C449.773 360.635 447.67 361 445.124 361Z" fill="white"/>
<path d="M504.33 360.676V335.848H494.367V332.324H518.401V335.848H508.439V360.676H504.33Z" fill="white"/>
<path d="M570.96 361C567.141 361 564.139 359.933 561.953 357.8C559.767 355.667 558.674 352.548 558.674 348.444V332.324H562.825V348.282C562.825 351.441 563.53 353.75 564.941 355.208C566.38 356.666 568.401 357.395 571.002 357.395C573.631 357.395 575.651 356.666 577.062 355.208C578.501 353.75 579.221 351.441 579.221 348.282V332.324H583.247V348.444C583.247 352.548 582.154 355.667 579.968 357.8C577.809 359.933 574.807 361 570.96 361Z" fill="white"/>
<path d="M628.285 360.676V332.324H640.53C643.629 332.324 646.355 332.918 648.707 334.106C651.087 335.294 652.927 336.955 654.228 339.088C655.556 341.221 656.22 343.692 656.22 346.5C656.22 349.308 655.556 351.779 654.228 353.912C652.927 356.045 651.087 357.706 648.707 358.894C646.355 360.082 643.629 360.676 640.53 360.676H628.285ZM632.435 357.152H640.281C642.688 357.152 644.764 356.707 646.507 355.816C648.278 354.925 649.648 353.682 650.616 352.089C651.585 350.469 652.069 348.606 652.069 346.5C652.069 344.367 651.585 342.504 650.616 340.911C649.648 339.318 648.278 338.075 646.507 337.184C644.764 336.293 642.688 335.848 640.281 335.848H632.435V357.152Z" fill="white"/>
<path d="M699.106 360.676V332.324H703.257V360.676H699.106Z" fill="white"/>
<path d="M761.6 361C759.386 361 757.325 360.635 755.415 359.906C753.534 359.177 751.901 358.165 750.517 356.869C749.134 355.546 748.055 354.007 747.28 352.251C746.505 350.496 746.117 348.579 746.117 346.5C746.117 344.421 746.505 342.504 747.28 340.749C748.055 338.993 749.134 337.468 750.517 336.172C751.901 334.849 753.534 333.823 755.415 333.094C757.297 332.365 759.359 332 761.6 332C763.814 332 765.848 332.365 767.702 333.094C769.584 333.796 771.216 334.808 772.6 336.131C774.011 337.427 775.091 338.953 775.838 340.708C776.613 342.463 777 344.394 777 346.5C777 348.606 776.613 350.537 775.838 352.292C775.091 354.047 774.011 355.586 772.6 356.909C771.216 358.205 769.584 359.218 767.702 359.947C765.848 360.649 763.814 361 761.6 361ZM761.6 357.395C763.205 357.395 764.686 357.125 766.042 356.585C767.425 356.045 768.615 355.289 769.611 354.317C770.635 353.318 771.424 352.157 771.977 350.834C772.559 349.511 772.849 348.066 772.849 346.5C772.849 344.934 772.559 343.489 771.977 342.166C771.424 340.843 770.635 339.696 769.611 338.723C768.615 337.724 767.425 336.955 766.042 336.415C764.686 335.875 763.205 335.605 761.6 335.605C759.968 335.605 758.459 335.875 757.076 336.415C755.72 336.955 754.53 337.724 753.506 338.723C752.482 339.696 751.68 340.843 751.098 342.166C750.545 343.489 750.268 344.934 750.268 346.5C750.268 348.066 750.545 349.511 751.098 350.834C751.68 352.157 752.482 353.318 753.506 354.317C754.53 355.289 755.72 356.045 757.076 356.585C758.459 357.125 759.968 357.395 761.6 357.395Z" fill="white"/>
<path d="M788.939 51C805.817 51 819.186 55.9298 829.045 65.7893C839.072 75.4818 844.085 89.7698 844.085 108.653V185.107H820.021V111.411C820.021 98.5431 816.93 88.8507 810.747 82.3333C804.564 75.816 795.707 72.5573 784.176 72.5573C771.141 72.5573 760.864 76.4009 753.344 84.088C745.824 91.608 742.064 102.47 742.064 116.675V185.107H718V52.2533H741.061V72.3067C745.908 65.4551 752.425 60.1911 760.613 56.5147C768.969 52.8382 778.411 51 788.939 51Z" fill="white"/>
</svg>
